<svg xmlns="http://www.w3.org/2000/svg" width="900" height="260" viewBox="0 0 900 260" fill="none">
<rect width="900" height="260" fill="#0b1220"/>

  <defs>
    <linearGradient id="gradMain" x1="0" y1="0" x2="1" y2="1">
      <stop offset="0%" stop-color="#1A73E8"/>
      <stop offset="100%" stop-color="#10B981"/>
    </linearGradient>
    <linearGradient id="gradMainHorizontal" x1="0" y1="0" x2="1" y2="0">
      <stop offset="0%" stop-color="#1A73E8"/>
      <stop offset="100%" stop-color="#10B981"/>
    </linearGradient>
  </defs>
<path d="M 70.0,65.0 C 120.0,47.0 180.0,83.0 230.0,65.0" stroke="url(#gradMain)" stroke-width="5.1" stroke-linecap="round" fill="none"/>
<path d="M 70.0,89.0 C 120.0,71.0 180.0,107.0 230.0,89.0" stroke="url(#gradMain)" stroke-width="5.1" stroke-linecap="round" fill="none"/>
<path d="M 70.0,113.0 C 120.0,95.0 180.0,131.0 230.0,113.0" stroke="url(#gradMain)" stroke-width="5.1" stroke-linecap="round" fill="none"/>
<path d="M 70.0,137.0 C 120.0,119.0 180.0,155.0 230.0,137.0" stroke="url(#gradMain)" stroke-width="5.1" stroke-linecap="round" fill="none"/>
<path d="M 70.0,161.0 C 120.0,143.0 180.0,179.0 230.0,161.0" stroke="url(#gradMain)" stroke-width="5.1" stroke-linecap="round" fill="none"/>
<circle cx="80.00" cy="85.00" r="4.50" fill="url(#gradMain)"/>
<circle cx="96.67" cy="104.41" r="4.72" fill="url(#gradMain)"/>
<circle cx="113.33" cy="121.35" r="4.94" fill="url(#gradMain)"/>
<circle cx="130.00" cy="133.63" r="5.16" fill="url(#gradMain)"/>
<circle cx="146.67" cy="139.64" r="5.38" fill="url(#gradMain)"/>
<circle cx="163.33" cy="138.53" r="5.60" fill="url(#gradMain)"/>
<circle cx="180.00" cy="130.29" r="5.82" fill="url(#gradMain)"/>
<circle cx="196.67" cy="115.79" r="6.04" fill="url(#gradMain)"/>
<circle cx="213.33" cy="96.63" r="6.26" fill="url(#gradMain)"/>
<circle cx="230.00" cy="75.00" r="6.48" fill="url(#gradMain)"/>
<text x="290" y="145" font-family="Inter,system-ui,-apple-system,Segoe UI,Roboto,Helvetica,Arial,sans-serif" font-size="96" font-weight="600" fill="#E8EEF7">nuvii.ai</text>
</svg>