<svg xmlns="http://www.w3.org/2000/svg" width="1200" height="630" viewBox="0 0 1200 630" fill="none">

<rect width="1200" height="630" fill="#ffffff"/>

  <defs>
    <linearGradient id="gradMain" x1="0" y1="0" x2="1" y2="1">
      <stop offset="0%" stop-color="#1A73E8"/>
      <stop offset="100%" stop-color="#10B981"/>
    </linearGradient>
    <linearGradient id="gradMainHorizontal" x1="0" y1="0" x2="1" y2="0">
      <stop offset="0%" stop-color="#1A73E8"/>
      <stop offset="100%" stop-color="#10B981"/>
    </linearGradient>
  </defs>

<g transform="translate(80,140) scale(1.2)">
<path d="M 10.0,10.0 C 60.0,-8.0 120.0,28.0 170.0,10.0" stroke="url(#gradMain)" stroke-width="5.1" stroke-linecap="round" fill="none"/>
<path d="M 10.0,34.0 C 60.0,16.0 120.0,52.0 170.0,34.0" stroke="url(#gradMain)" stroke-width="5.1" stroke-linecap="round" fill="none"/>
<path d="M 10.0,58.0 C 60.0,40.0 120.0,76.0 170.0,58.0" stroke="url(#gradMain)" stroke-width="5.1" stroke-linecap="round" fill="none"/>
<path d="M 10.0,82.0 C 60.0,64.0 120.0,100.0 170.0,82.0" stroke="url(#gradMain)" stroke-width="5.1" stroke-linecap="round" fill="none"/>
<path d="M 10.0,106.0 C 60.0,88.0 120.0,124.0 170.0,106.0" stroke="url(#gradMain)" stroke-width="5.1" stroke-linecap="round" fill="none"/>
<circle cx="20.00" cy="30.00" r="4.50" fill="url(#gradMain)"/>
<circle cx="36.67" cy="49.41" r="4.72" fill="url(#gradMain)"/>
<circle cx="53.33" cy="66.35" r="4.94" fill="url(#gradMain)"/>
<circle cx="70.00" cy="78.63" r="5.16" fill="url(#gradMain)"/>
<circle cx="86.67" cy="84.64" r="5.38" fill="url(#gradMain)"/>
<circle cx="103.33" cy="83.53" r="5.60" fill="url(#gradMain)"/>
<circle cx="120.00" cy="75.29" r="5.82" fill="url(#gradMain)"/>
<circle cx="136.67" cy="60.79" r="6.04" fill="url(#gradMain)"/>
<circle cx="153.33" cy="41.63" r="6.26" fill="url(#gradMain)"/>
<circle cx="170.00" cy="20.00" r="6.48" fill="url(#gradMain)"/>

</g>
<text x="420" y="260" font-family="Inter,system-ui,-apple-system,Segoe UI,Roboto,Helvetica,Arial,sans-serif" font-size="120" font-weight="700" fill="#1F2A36">nuvii.ai</text>
<text x="420" y="330" font-family="Inter,system-ui,-apple-system,Segoe UI,Roboto,Helvetica,Arial,sans-serif" font-size="36" fill="#334155">Medical coding APIs for developers</text>
<rect x="420" y="380" rx="14" ry="14" width="370" height="62" fill="url(#gradMain)"/>
<text x="440" y="423" font-family="Inter,system-ui,-apple-system,Segoe UI,Roboto,Helvetica,Arial,sans-serif" font-size="28" font-weight="600" fill="#ffffff">ICD-10 & CPT • Self-serve • Fast</text>
</svg>
