<svg xmlns="http://www.w3.org/2000/svg" width="512" height="512" viewBox="0 0 512 512" fill="none">
<rect width="512" height="512" fill="#0b1220"/>

  <defs>
    <linearGradient id="gradMain" x1="0" y1="0" x2="1" y2="1">
      <stop offset="0%" stop-color="#1A73E8"/>
      <stop offset="100%" stop-color="#10B981"/>
    </linearGradient>
    <linearGradient id="gradMainHorizontal" x1="0" y1="0" x2="1" y2="0">
      <stop offset="0%" stop-color="#1A73E8"/>
      <stop offset="100%" stop-color="#10B981"/>
    </linearGradient>
  </defs>
<path d="M 96.0,100.0 C 196.0,64.0 316.0,136.0 416.0,100.0" stroke="url(#gradMain)" stroke-width="10.2" stroke-linecap="round" fill="none"/>
<path d="M 96.0,148.0 C 196.0,112.0 316.0,184.0 416.0,148.0" stroke="url(#gradMain)" stroke-width="10.2" stroke-linecap="round" fill="none"/>
<path d="M 96.0,196.0 C 196.0,160.0 316.0,232.0 416.0,196.0" stroke="url(#gradMain)" stroke-width="10.2" stroke-linecap="round" fill="none"/>
<path d="M 96.0,244.0 C 196.0,208.0 316.0,280.0 416.0,244.0" stroke="url(#gradMain)" stroke-width="10.2" stroke-linecap="round" fill="none"/>
<path d="M 96.0,292.0 C 196.0,256.0 316.0,328.0 416.0,292.0" stroke="url(#gradMain)" stroke-width="10.2" stroke-linecap="round" fill="none"/>
<circle cx="116.00" cy="140.00" r="9.00" fill="url(#gradMain)"/>
<circle cx="149.33" cy="178.82" r="9.44" fill="url(#gradMain)"/>
<circle cx="182.67" cy="212.69" r="9.88" fill="url(#gradMain)"/>
<circle cx="216.00" cy="237.26" r="10.32" fill="url(#gradMain)"/>
<circle cx="249.33" cy="249.29" r="10.76" fill="url(#gradMain)"/>
<circle cx="282.67" cy="247.07" r="11.20" fill="url(#gradMain)"/>
<circle cx="316.00" cy="230.59" r="11.64" fill="url(#gradMain)"/>
<circle cx="349.33" cy="201.58" r="12.08" fill="url(#gradMain)"/>
<circle cx="382.67" cy="163.26" r="12.52" fill="url(#gradMain)"/>
<circle cx="416.00" cy="120.00" r="12.96" fill="url(#gradMain)"/>
</svg>